<?xml version="1.0" encoding="UTF-8"?>
<svg width="20px" height="20px" viewBox="0 0 20 20" version="1.1" xmlns="http://www.w3.org/2000/svg" xmlns:xlink="http://www.w3.org/1999/xlink">
    <!-- Generator: Sketch 44.1 (41455) - http://www.bohemiancoding.com/sketch -->
    <title>icn-password</title>
    <desc>Created with Sketch.</desc>
    <defs></defs>
    <g id="Main" stroke="none" stroke-width="1" fill="none" fill-rule="evenodd">
        <g id="Styles" transform="translate(-784.000000, -210.000000)">
            <g id="Header-Sign-Up">
                <g id="Authorize-Drop-Down" transform="translate(744.000000, 20.000000)">
                    <g id="F2-Password" transform="translate(10.000000, 170.000000)">
                        <g id="White-space-+-enter-male" transform="translate(10.000000, 10.000000)">
                            <g id="enter-male">
                                <g id="icn-password" transform="translate(20.000000, 10.000000)">
                                    <polygon id="container" points="0 0 20 0 20 20 0 20"></polygon>
                                    <path d="M10.375,14.4475 L8.33333333,16.6666667 L6.66666667,16.6666667 L6.66666667,18.3333333 L5,18.3333333 L5,20 L0,20 L0,15.8333333 L5.72083333,10.0416667 C6.62654132,12.0696854 8.30110445,13.6546147 10.3758333,14.4475 L10.375,14.4475 Z M20,6.66666667 C20,10.348565 17.0152317,13.3333333 13.3333333,13.3333333 C9.651435,13.3333333 6.66666667,10.348565 6.66666667,6.66666667 C6.66666667,2.98476833 9.651435,6.76353751e-16 13.3333333,0 C17.0152317,-6.76353751e-16 20,2.98476833 20,6.66666667 L20,6.66666667 Z M17.5,4.16666667 C17.5,3.24619208 16.7538079,2.5 15.8333333,2.5 C14.9128588,2.5 14.1666667,3.24619208 14.1666667,4.16666667 C14.1666667,5.08714125 14.9128588,5.83333333 15.8333333,5.83333333 C16.7538079,5.83333333 17.5,5.08714125 17.5,4.16666667 L17.5,4.16666667 Z" id="ic-pass" fill="#B0BEC5"></path>
                                </g>
                            </g>
                        </g>
                    </g>
                </g>
            </g>
        </g>
    </g>
</svg>