<?xml version="1.0" encoding="UTF-8"?>
<svg width="20px" height="16px" viewBox="0 0 20 16" version="1.1" xmlns="http://www.w3.org/2000/svg" xmlns:xlink="http://www.w3.org/1999/xlink">
    <!-- Generator: Sketch 44.1 (41455) - http://www.bohemiancoding.com/sketch -->
    <title>ic_search_black_24px</title>
    <desc>Created with Sketch.</desc>
    <defs></defs>
    <g id="Main" stroke="none" stroke-width="1" fill="none" fill-rule="evenodd">
        <g id="Styles" transform="translate(-784.000000, -152.000000)">
            <g id="Header-Sign-Up">
                <g id="Authorize-Drop-Down" transform="translate(744.000000, 20.000000)">
                    <g id="F2-Email" transform="translate(10.000000, 110.000000)">
                        <g transform="translate(10.000000, 10.000000)" id="enter-male">
                            <g>
                                <g id="ic_search_black_24px" transform="translate(20.000000, 10.000000)">
                                    <polygon id="Shape" points="0 0 20 0 20 20 0 20"></polygon>
                                    <path d="M18,2 L2,2 C0.9,2 0.01,2.9 0.01,4 L0,16 C0,17.1 0.9,18 2,18 L18,18 C19.1,18 20,17.1 20,16 L20,4 C20,2.9 19.1,2 18,2 L18,2 Z M18,6 L10,11 L2,6 L2,4 L10,9 L18,4 L18,6 L18,6 Z" id="Shape" fill="#B0BEC5"></path>
                                </g>
                            </g>
                        </g>
                    </g>
                </g>
            </g>
        </g>
    </g>
</svg>