<?xml version="1.0" encoding="UTF-8"?>
<svg width="285px" height="285px" viewBox="0 0 285 285" version="1.1" xmlns="http://www.w3.org/2000/svg" xmlns:xlink="http://www.w3.org/1999/xlink">
    <!-- Generator: Sketch 44.1 (41455) - http://www.bohemiancoding.com/sketch -->
    <title>Illustration-1</title>
    <desc>Created with Sketch.</desc>
    <defs></defs>
    <g id="Main" stroke="none" stroke-width="1" fill="none" fill-rule="evenodd">
        <g id="Styles" transform="translate(-92.000000, -3434.000000)">
            <g id="Illustration-1" transform="translate(92.000000, 3434.000000)">
                <polygon id="Fill-17" fill="#FF8900" points="71.2989064 0.384307389 0.389273314 57.1460595 0.389273314 170.669564 142.208539 284.193068 284.02489 170.669564 284.02489 57.1460595 213.115257 0.384307389 142.208539 57.1460595"></polygon>
                <polygon id="Fill-18" fill="#FD9A00" points="71.299198 113.907812 142.205915 57.1460595 71.299198 0.384307389"></polygon>
                <polygon id="Fill-19" fill="#FCC400" points="0.389564907 57.1448924 71.299198 113.906644 71.299198 0.383140292"></polygon>
                <polygon id="Fill-20" fill="#FFE747" points="213.11584 113.907812 284.022557 57.1460595 213.11584 0.384307389"></polygon>
                <polygon id="Fill-21" fill="#FFCD22" points="142.206207 57.1448924 213.11584 113.906644 213.11584 0.383140292"></polygon>
                <polygon id="Fill-22" fill="#FC9300" points="142.206207 170.670731 213.11584 113.908979 142.206207 57.1443088"></polygon>
                <polygon id="Fill-23" fill="#FD7000" points="71.299198 113.907812 142.205915 170.669564 142.205915 57.1460595"></polygon>
                <polygon id="Fill-24" fill="#FF8900" points="213.11584 227.431024 284.022557 170.67219 213.11584 113.90752"></polygon>
                <polygon id="Fill-25" fill="#E12A14" points="142.206207 170.670731 213.11584 227.429565 213.11584 113.908979"></polygon>
                <polygon id="Fill-26" fill="#DC2400" points="71.299198 227.431024 142.205915 170.67219 71.299198 113.90752"></polygon>
                <polygon id="Fill-27" fill="#FF8F04" points="0.389564907 170.670731 71.299198 227.429565 71.299198 113.908979"></polygon>
                <polygon id="Fill-28" fill="#AF0B00" points="142.206207 284.193943 213.11584 227.432191 142.206207 170.670439"></polygon>
                <polygon id="Fill-29" fill="#BA1200" points="71.299198 227.431024 142.205915 284.192776 142.205915 170.67219"></polygon>
                <polygon id="Fill-30" fill="#FCC400" points="213.11584 113.907812 284.022557 170.669564 284.022557 57.1460595"></polygon>
                <polygon id="Fill-31" fill="#FFA800" points="0.389564907 170.670731 71.299198 113.908979 0.389564907 57.1443088"></polygon>
            </g>
        </g>
    </g>
</svg>