<?xml version="1.0" encoding="UTF-8"?>
<svg width="531px" height="387px" viewBox="0 0 531 387" version="1.1" xmlns="http://www.w3.org/2000/svg" xmlns:xlink="http://www.w3.org/1999/xlink">
    <!-- Generator: Sketch 44.1 (41455) - http://www.bohemiancoding.com/sketch -->
    <title>Illustration-2</title>
    <desc>Created with Sketch.</desc>
    <defs></defs>
    <g id="Main" stroke="none" stroke-width="1" fill="none" fill-rule="evenodd">
        <g id="Styles" transform="translate(-421.000000, -3383.000000)">
            <g id="Illustration-2" transform="translate(421.000000, 3383.000000)">
                <polygon id="Fill-1" fill="#006023" points="265.207082 55.1365632 429.942657 136.763312 429.942657 304.574323 265.207082 241.822447"></polygon>
                <polygon id="Fill-2" fill="#006023" points="265.207373 55.1365632 100.471798 136.763312 100.471798 304.574323 265.207373 241.822447"></polygon>
                <polygon id="Fill-3" fill="#1B9B4A" points="100.471506 136.763896 43.5670942 81.3764002 213.335568 0.689164071 265.207082 55.1371468"></polygon>
                <polygon id="Fill-4" fill="#1AB744" points="429.942948 136.763896 486.84736 81.3764002 317.078886 0.689164071 265.207373 55.1371468"></polygon>
                <g id="Group-16" transform="translate(1.331861, 161.535233)">
                    <g id="Group-15" transform="translate(527.124053, 2.917742)"></g>
                </g>
                <polygon id="Fill-32" fill="#1B9B4A" points="100.471215 304.573156 265.20679 386.202823 265.20679 214.616254 100.471215 136.762145"></polygon>
                <polygon id="Fill-33" fill="#1AB744" points="265.206207 214.615379 265.206207 386.201948 429.944698 304.572281 429.944698 136.764188"></polygon>
                <polygon id="Fill-34" fill="#1AB744" points="0.121749392 149.625302 162.830752 231.254969 265.206207 214.618005 100.470631 136.763896"></polygon>
                <polygon id="Fill-35" fill="#1B9B4A" points="265.206207 214.618005 367.584577 231.254969 530.29358 149.625302 429.944698 136.763896"></polygon>
            </g>
        </g>
    </g>
</svg>